<?xml version="1.0" encoding="utf-8"?>
<!-- Generator: Adobe Illustrator 21.0.0, SVG Export Plug-In . SVG Version: 6.00 Build 0)  -->
<svg version="1.1" id="Layer_1" xmlns="http://www.w3.org/2000/svg" xmlns:xlink="http://www.w3.org/1999/xlink" x="0px" y="0px"
	 viewBox="0 0 85 85" style="enable-background:new 0 0 85 85;" xml:space="preserve">
<style type="text/css">
	.st0{fill:#FFFFFF;}
	.st1{fill:#6B6A6D;}
</style>
<g>
	<path class="st0" d="M42.5,0C66,0,85,19,85,42.5S66,85,42.5,85S0,66,0,42.5S19,0,42.5,0z"/>
</g>
<path class="st1" d="M25.7,31.4c0,0,2.4-2.3,3.9-2.3s1.4,1.9,1.4,1.9s-1.1,7.3-10.4,7.9c2,1.9,5.2,1.9,5.2,1.9s3.8-0.6,6.1-2
	s5.8,4.9,5.8,5.4s0.3,3.9-1.1,6s-0.5,7.6,1.6,8.8c0.4,3.5,0.3,9,0.3,9h2.1L41,57.9c0,0,0-2.4,2.2-3.9s4.2-4.2,4.8-5.8s0.9-4.9,0-5.4
	c0,0,0.1,5.6-3,7.9s-4,1.3-4,1.3s-2.9-5.9-0.8-16.3c0,0,8.4-2.4,8.7-6.2c0.4-3.4-0.8-3.9-0.8-3.9s-2.1-1.7-6.2,0
	c-3.9,1.9-4.9,5.4-4.9,5.4s-0.5,2.9,1.4,4.4c0,0-0.9,2.6-0.4,3.6s-2.3-1.6-2.3-1.6s-3.8-2.5-1.3-8.4c0,0,4.4-6.4,10.8-6.4
	s8.1,4.4,8.1,4.4s1.2,2.1-3.9,5.6C47.4,34,47.1,38,47.1,38s3-3.9,5.6-4.8s3.6-3.1,3.6-3.1s2.4,0.7,3.8,0.6s3.4-2.2,3.4-2.2
	s-7.5-0.1-9-2.9s2.6-1.9,2.6-1.9S56.7,22,52.9,22L51,21h-3.9c0,0-2.4,0.1-2.5-1.6S44.4,17,44.4,17s-3.1,4.1-4.4,5s-5.3,0.2-6-0.1
	c0,0-0.1,2-1.8,2.8s-4.8,2.2-4.8,2.2"/>
</svg>
